<svg xmlns="http://www.w3.org/2000/svg" xmlns:xlink="http://www.w3.org/1999/xlink" width="500" zoomAndPan="magnify" viewBox="0 0 375 374.999991" height="500" preserveAspectRatio="xMidYMid meet" version="1.0"><defs><g/><clipPath id="id1"><path d="M 235 156 L 272.472656 156 L 272.472656 197 L 235 197 Z M 235 156 " clip-rule="nonzero"/></clipPath><clipPath id="id2"><path d="M 176 133.019531 L 258 133.019531 L 258 197.519531 L 176 197.519531 Z M 176 133.019531 " clip-rule="nonzero"/></clipPath><clipPath id="id3"><path d="M 102.222656 139 L 247 139 L 247 197.519531 L 102.222656 197.519531 Z M 102.222656 139 " clip-rule="nonzero"/></clipPath></defs><path fill="#5f7161" d="M 234.683594 182.453125 L 229.109375 182.453125 L 229.109375 176.878906 L 234.683594 176.878906 L 234.683594 182.453125 " fill-opacity="1" fill-rule="nonzero"/><path fill="#5f7161" d="M 236.109375 182.453125 L 236.109375 176.878906 L 241.683594 176.878906 L 241.683594 182.453125 L 236.109375 182.453125 " fill-opacity="1" fill-rule="nonzero"/><path fill="#5f7161" d="M 236.109375 183.878906 L 241.683594 183.878906 L 241.683594 189.453125 L 236.109375 189.453125 L 236.109375 183.878906 " fill-opacity="1" fill-rule="nonzero"/><path fill="#5f7161" d="M 234.683594 183.878906 L 234.683594 189.453125 L 229.109375 189.453125 L 229.109375 183.878906 L 234.683594 183.878906 " fill-opacity="1" fill-rule="nonzero"/><g clip-path="url(#id1)"><path fill="#5f7161" d="M 242.476562 156.769531 L 272.476562 196.972656 L 235.394531 165.652344 Z M 242.476562 156.769531 " fill-opacity="1" fill-rule="nonzero"/></g><g clip-path="url(#id2)"><path fill="#ff7700" d="M 257.679688 133.054688 L 206.3125 197.503906 L 176.144531 197.503906 Z M 257.679688 133.054688 " fill-opacity="1" fill-rule="nonzero"/></g><g clip-path="url(#id3)"><path fill="#4b7be5" d="M 102.222656 197.503906 L 246.117188 139.175781 L 163.398438 197.503906 Z M 102.222656 197.503906 " fill-opacity="1" fill-rule="nonzero"/></g><g fill="#5f7161" fill-opacity="1"><g transform="translate(135.3244, 220.479506)"><g><path d="M 8.046875 -19.28125 C 9.796875 -19.28125 11.238281 -19.066406 12.375 -18.640625 C 13.507812 -18.222656 14.351562 -17.585938 14.90625 -16.734375 C 15.457031 -15.878906 15.734375 -14.800781 15.734375 -13.5 C 15.734375 -12.625 15.566406 -11.851562 15.234375 -11.1875 C 14.898438 -10.53125 14.460938 -9.972656 13.921875 -9.515625 C 13.378906 -9.054688 12.789062 -8.679688 12.15625 -8.390625 L 17.828125 0 L 13.296875 0 L 8.6875 -7.390625 L 6.515625 -7.390625 L 6.515625 0 L 2.421875 0 L 2.421875 -19.28125 Z M 7.75 -15.921875 L 6.515625 -15.921875 L 6.515625 -10.71875 L 7.828125 -10.71875 C 9.179688 -10.71875 10.148438 -10.941406 10.734375 -11.390625 C 11.316406 -11.847656 11.609375 -12.515625 11.609375 -13.390625 C 11.609375 -14.304688 11.296875 -14.957031 10.671875 -15.34375 C 10.046875 -15.726562 9.070312 -15.921875 7.75 -15.921875 Z M 7.75 -15.921875 "/></g></g><g transform="translate(153.148618, 220.479506)"><g><path d="M 8.1875 -15.015625 C 9.550781 -15.015625 10.722656 -14.753906 11.703125 -14.234375 C 12.691406 -13.710938 13.453125 -12.953125 13.984375 -11.953125 C 14.523438 -10.960938 14.796875 -9.75 14.796875 -8.3125 L 14.796875 -6.375 L 5.28125 -6.375 C 5.332031 -5.238281 5.675781 -4.347656 6.3125 -3.703125 C 6.945312 -3.054688 7.832031 -2.734375 8.96875 -2.734375 C 9.90625 -2.734375 10.765625 -2.828125 11.546875 -3.015625 C 12.328125 -3.210938 13.132812 -3.503906 13.96875 -3.890625 L 13.96875 -0.78125 C 13.238281 -0.414062 12.472656 -0.148438 11.671875 0.015625 C 10.878906 0.179688 9.914062 0.265625 8.78125 0.265625 C 7.300781 0.265625 5.992188 -0.00390625 4.859375 -0.546875 C 3.722656 -1.097656 2.832031 -1.929688 2.1875 -3.046875 C 1.539062 -4.160156 1.21875 -5.566406 1.21875 -7.265625 C 1.21875 -8.984375 1.507812 -10.414062 2.09375 -11.5625 C 2.675781 -12.71875 3.488281 -13.582031 4.53125 -14.15625 C 5.582031 -14.726562 6.800781 -15.015625 8.1875 -15.015625 Z M 8.21875 -12.15625 C 7.4375 -12.15625 6.785156 -11.90625 6.265625 -11.40625 C 5.753906 -10.90625 5.457031 -10.117188 5.375 -9.046875 L 11.015625 -9.046875 C 11.015625 -9.640625 10.910156 -10.171875 10.703125 -10.640625 C 10.492188 -11.109375 10.179688 -11.476562 9.765625 -11.75 C 9.359375 -12.019531 8.84375 -12.15625 8.21875 -12.15625 Z M 8.21875 -12.15625 "/></g></g><g transform="translate(169.100765, 220.479506)"><g><path d="M 13.796875 -5.359375 C 13.796875 -4.210938 13.519531 -3.21875 12.96875 -2.375 C 12.414062 -1.53125 11.609375 -0.878906 10.546875 -0.421875 C 9.492188 0.0351562 8.210938 0.265625 6.703125 0.265625 C 6.035156 0.265625 5.378906 0.21875 4.734375 0.125 C 4.097656 0.0390625 3.488281 -0.0820312 2.90625 -0.25 C 2.320312 -0.425781 1.765625 -0.640625 1.234375 -0.890625 L 1.234375 -4.6875 C 2.148438 -4.289062 3.097656 -3.925781 4.078125 -3.59375 C 5.066406 -3.269531 6.046875 -3.109375 7.015625 -3.109375 C 7.679688 -3.109375 8.21875 -3.195312 8.625 -3.375 C 9.03125 -3.550781 9.328125 -3.789062 9.515625 -4.09375 C 9.703125 -4.40625 9.796875 -4.757812 9.796875 -5.15625 C 9.796875 -5.632812 9.628906 -6.046875 9.296875 -6.390625 C 8.972656 -6.734375 8.53125 -7.054688 7.96875 -7.359375 C 7.40625 -7.660156 6.765625 -7.976562 6.046875 -8.3125 C 5.597656 -8.53125 5.109375 -8.789062 4.578125 -9.09375 C 4.054688 -9.394531 3.554688 -9.765625 3.078125 -10.203125 C 2.609375 -10.640625 2.222656 -11.171875 1.921875 -11.796875 C 1.617188 -12.429688 1.46875 -13.1875 1.46875 -14.0625 C 1.46875 -15.21875 1.726562 -16.203125 2.25 -17.015625 C 2.78125 -17.835938 3.535156 -18.460938 4.515625 -18.890625 C 5.492188 -19.328125 6.648438 -19.546875 7.984375 -19.546875 C 8.992188 -19.546875 9.953125 -19.429688 10.859375 -19.203125 C 11.765625 -18.972656 12.71875 -18.632812 13.71875 -18.1875 L 12.390625 -15.015625 C 11.503906 -15.378906 10.707031 -15.660156 10 -15.859375 C 9.300781 -16.054688 8.585938 -16.15625 7.859375 -16.15625 C 7.347656 -16.15625 6.910156 -16.070312 6.546875 -15.90625 C 6.191406 -15.738281 5.921875 -15.507812 5.734375 -15.21875 C 5.546875 -14.925781 5.453125 -14.585938 5.453125 -14.203125 C 5.453125 -13.742188 5.585938 -13.359375 5.859375 -13.046875 C 6.128906 -12.734375 6.535156 -12.429688 7.078125 -12.140625 C 7.617188 -11.847656 8.289062 -11.507812 9.09375 -11.125 C 10.082031 -10.65625 10.925781 -10.164062 11.625 -9.65625 C 12.320312 -9.15625 12.859375 -8.566406 13.234375 -7.890625 C 13.609375 -7.210938 13.796875 -6.367188 13.796875 -5.359375 Z M 13.796875 -5.359375 "/></g></g><g transform="translate(183.971858, 220.479506)"><g><path d="M 8.3125 -2.9375 C 8.757812 -2.9375 9.191406 -2.976562 9.609375 -3.0625 C 10.023438 -3.15625 10.4375 -3.269531 10.84375 -3.40625 L 10.84375 -0.40625 C 10.414062 -0.21875 9.882812 -0.0625 9.25 0.0625 C 8.613281 0.195312 7.914062 0.265625 7.15625 0.265625 C 6.28125 0.265625 5.492188 0.125 4.796875 -0.15625 C 4.097656 -0.445312 3.546875 -0.945312 3.140625 -1.65625 C 2.742188 -2.363281 2.546875 -3.347656 2.546875 -4.609375 L 2.546875 -11.71875 L 0.625 -11.71875 L 0.625 -13.421875 L 2.828125 -14.765625 L 4 -17.875 L 6.5625 -17.875 L 6.5625 -14.734375 L 10.6875 -14.734375 L 10.6875 -11.71875 L 6.5625 -11.71875 L 6.5625 -4.609375 C 6.5625 -4.046875 6.722656 -3.625 7.046875 -3.34375 C 7.367188 -3.070312 7.789062 -2.9375 8.3125 -2.9375 Z M 8.3125 -2.9375 "/></g></g><g transform="translate(195.692072, 220.479506)"><g><path d="M 8.140625 -15.046875 C 10.117188 -15.046875 11.632812 -14.613281 12.6875 -13.75 C 13.75 -12.882812 14.28125 -11.578125 14.28125 -9.828125 L 14.28125 0 L 11.46875 0 L 10.6875 -2 L 10.59375 -2 C 10.164062 -1.476562 9.734375 -1.050781 9.296875 -0.71875 C 8.859375 -0.382812 8.351562 -0.140625 7.78125 0.015625 C 7.207031 0.179688 6.515625 0.265625 5.703125 0.265625 C 4.828125 0.265625 4.046875 0.0976562 3.359375 -0.234375 C 2.671875 -0.566406 2.128906 -1.078125 1.734375 -1.765625 C 1.335938 -2.460938 1.140625 -3.34375 1.140625 -4.40625 C 1.140625 -5.96875 1.6875 -7.117188 2.78125 -7.859375 C 3.882812 -8.609375 5.53125 -9.019531 7.71875 -9.09375 L 10.28125 -9.171875 L 10.28125 -9.828125 C 10.28125 -10.597656 10.078125 -11.160156 9.671875 -11.515625 C 9.273438 -11.878906 8.710938 -12.0625 7.984375 -12.0625 C 7.273438 -12.0625 6.578125 -11.957031 5.890625 -11.75 C 5.203125 -11.550781 4.519531 -11.300781 3.84375 -11 L 2.5 -13.71875 C 3.28125 -14.125 4.15625 -14.445312 5.125 -14.6875 C 6.101562 -14.925781 7.109375 -15.046875 8.140625 -15.046875 Z M 10.28125 -6.828125 L 8.734375 -6.78125 C 7.429688 -6.738281 6.523438 -6.503906 6.015625 -6.078125 C 5.515625 -5.648438 5.265625 -5.082031 5.265625 -4.375 C 5.265625 -3.757812 5.441406 -3.320312 5.796875 -3.0625 C 6.160156 -2.800781 6.632812 -2.671875 7.21875 -2.671875 C 8.070312 -2.671875 8.796875 -2.925781 9.390625 -3.4375 C 9.984375 -3.945312 10.28125 -4.671875 10.28125 -5.609375 Z M 10.28125 -6.828125 "/></g></g><g transform="translate(212.000177, 220.479506)"><g><path d="M 8.3125 -2.9375 C 8.757812 -2.9375 9.191406 -2.976562 9.609375 -3.0625 C 10.023438 -3.15625 10.4375 -3.269531 10.84375 -3.40625 L 10.84375 -0.40625 C 10.414062 -0.21875 9.882812 -0.0625 9.25 0.0625 C 8.613281 0.195312 7.914062 0.265625 7.15625 0.265625 C 6.28125 0.265625 5.492188 0.125 4.796875 -0.15625 C 4.097656 -0.445312 3.546875 -0.945312 3.140625 -1.65625 C 2.742188 -2.363281 2.546875 -3.347656 2.546875 -4.609375 L 2.546875 -11.71875 L 0.625 -11.71875 L 0.625 -13.421875 L 2.828125 -14.765625 L 4 -17.875 L 6.5625 -17.875 L 6.5625 -14.734375 L 10.6875 -14.734375 L 10.6875 -11.71875 L 6.5625 -11.71875 L 6.5625 -4.609375 C 6.5625 -4.046875 6.722656 -3.625 7.046875 -3.34375 C 7.367188 -3.070312 7.789062 -2.9375 8.3125 -2.9375 Z M 8.3125 -2.9375 "/></g></g><g transform="translate(223.720391, 220.479506)"><g><path d="M 8.1875 -15.015625 C 9.550781 -15.015625 10.722656 -14.753906 11.703125 -14.234375 C 12.691406 -13.710938 13.453125 -12.953125 13.984375 -11.953125 C 14.523438 -10.960938 14.796875 -9.75 14.796875 -8.3125 L 14.796875 -6.375 L 5.28125 -6.375 C 5.332031 -5.238281 5.675781 -4.347656 6.3125 -3.703125 C 6.945312 -3.054688 7.832031 -2.734375 8.96875 -2.734375 C 9.90625 -2.734375 10.765625 -2.828125 11.546875 -3.015625 C 12.328125 -3.210938 13.132812 -3.503906 13.96875 -3.890625 L 13.96875 -0.78125 C 13.238281 -0.414062 12.472656 -0.148438 11.671875 0.015625 C 10.878906 0.179688 9.914062 0.265625 8.78125 0.265625 C 7.300781 0.265625 5.992188 -0.00390625 4.859375 -0.546875 C 3.722656 -1.097656 2.832031 -1.929688 2.1875 -3.046875 C 1.539062 -4.160156 1.21875 -5.566406 1.21875 -7.265625 C 1.21875 -8.984375 1.507812 -10.414062 2.09375 -11.5625 C 2.675781 -12.71875 3.488281 -13.582031 4.53125 -14.15625 C 5.582031 -14.726562 6.800781 -15.015625 8.1875 -15.015625 Z M 8.21875 -12.15625 C 7.4375 -12.15625 6.785156 -11.90625 6.265625 -11.40625 C 5.753906 -10.90625 5.457031 -10.117188 5.375 -9.046875 L 11.015625 -9.046875 C 11.015625 -9.640625 10.910156 -10.171875 10.703125 -10.640625 C 10.492188 -11.109375 10.179688 -11.476562 9.765625 -11.75 C 9.359375 -12.019531 8.84375 -12.15625 8.21875 -12.15625 Z M 8.21875 -12.15625 "/></g></g></g></svg>